<?xml version="1.0" ?><svg viewBox="0 0 40 40" xmlns="http://www.w3.org/2000/svg"><defs><style>.cls-1{fill:#fff;}</style></defs><g id="Logos"><g id="Marvel"><path d="M34.44,27.12h-30V13.54h30Z" id="path"/><path class="cls-1" d="M30.34,15.47H32v8h1.43v2H30.34Z" id="path2509"/><path class="cls-1" d="M18.77,20.22c1.21-.08,1.1-1.57,1.1-1.57-.18-1.46-1.1-1.39-1.1-1.39Zm-3.87,2.3-.51-3-.43,3ZM5.67,25.4V15.47H7.93l.81,4.16.91-4.16h2.19v8.94l1.42-8.94h2.23l1.39,8.94v-8.9h2.95a2.26,2.26,0,0,1,1.53,1.6l-.21-1.64h1.78l.84,5.15.88-5.11h5v1.86h-1.5v2h1.42v2.08H28.23v1.9h1.46v2H26.44V15.84L24.76,25.4h-2l-1.06-6.35a4.36,4.36,0,0,1-1.16,2.55l1.27,3.8H20.05l-1.24-3.32V25.4H15.27l-.18-.95H13.74l-.3.95H10.09V21.75L9.21,25.4H8.3l-.8-3.61v3.57Z" id="path2515"/></g></g></svg>